:SAMPLES-PER-SECOND 30
:FULLY-SPECIFIED
:DEGREES
551
root  -36.7987 34.8084 6.19981 -172.563 44.0912 -179.949
RightUpLeg  -13.8995 -12.6748 0.240775
RightLeg  0.836555 0.973308 -0.0481709
RightFoot  16.0072 0.0139917 0.410061
RightToes  -23.2633 -0.100388 -0.202529
Spine  -1.88194 0.317012 -0.72457
Spine1  -3.73193 0.720373 -0.622338
HEad  -71.5629 -7.4992 15.4166
LeftShoulder1  -1.94126e-019 -3.10601e-018 -2.51263e-017
LeftArm  13.7464 32.6079 -69.2782
LeftForeArm  127.541 -73.1204 -141.149
LeftHand  0.125633 0.598364 -3.1584
RightShoulder  -4.96962e-017 0 -2.36833e-017
RightArm  21.2441 -21.8747 70.2164
RightForeArm  148.902 79.0089 125.337
RightHand  0.196763 3.99289 2.16433
LeftUpLeg  -4.50484 3.71432 -4.54965
LeftLeg  5.9084 21.7632 0.825133
LeftFoot  -1.40608 -0.00558119 -0.397757
LeftToes  -5.81127 1.49739e-006 1.00523e-007
552
root  -36.8747 34.8051 6.23539 -172.751 44.3425 179.941
RightUpLeg  -14.0025 -12.266 0.078439
RightLeg  0.954636 0.810324 -0.0383628
RightFoot  16.181 0.0170161 0.368361
RightToes  -23.6459 -0.102702 -0.205471
Spine  -1.87075 0.261906 -0.721428
Spine1  -3.71029 0.611494 -0.621578
HEad  -71.4422 -6.85147 15.1849
LeftShoulder1  -1.94126e-019 -3.10601e-018 -2.51263e-017
LeftArm  14.0792 32.3594 -69.0639
LeftForeArm  127.543 -73.1152 -141.161
LeftHand  0.113033 0.687407 -2.9171
RightShoulder  -4.96962e-017 0 -2.36833e-017
RightArm  21.0841 -21.9965 70.2907
RightForeArm  148.848 78.9923 125.412
RightHand  0.186419 3.85088 2.07772
LeftUpLeg  -4.58032 3.97383 -4.68996
LeftLeg  6.05495 21.7329 0.878357
LeftFoot  -1.42421 -0.00590694 -0.40402
LeftToes  -5.73037 1.49739e-006 1.00523e-007
553
root  -36.9501 34.801 6.26236 -172.998 44.5456 179.736
RightUpLeg  -14.1037 -12.1421 -0.119796
RightLeg  1.07027 0.888572 -0.0402644
RightFoot  16.2704 0.0154804 0.391652
RightToes  -23.8436 -0.103767 -0.206985
Spine  -1.8756 0.206873 -0.739858
Spine1  -3.72124 0.502656 -0.66494
HEad  -71.2946 -6.32032 14.9383
LeftShoulder1  -1.94126e-019 -3.10601e-018 -2.51263e-017
LeftArm  14.3646 32.0975 -68.8534
LeftForeArm  127.635 -73.1303 -141.14
LeftHand  0.112701 0.711875 -2.92775
RightShoulder  -4.96962e-017 0 -2.36833e-017
RightArm  20.8714 -22.22 70.4153
RightForeArm  148.615 79.0308 125.139
RightHand  0.179628 3.7989 2.0074
LeftUpLeg  -4.58059 3.97717 -4.91518
LeftLeg  6.04181 21.9401 0.881416
LeftFoot  -1.3807 -0.0072428 -0.392442
LeftToes  -5.62059 1.49739e-006 1.00523e-007
554
root  -37.0184 34.7969 6.29309 -173.105 44.6736 179.701
RightUpLeg  -14.1553 -11.9935 -0.192717
RightLeg  1.08627 0.873944 -0.0393482
RightFoot  16.4062 0.0154755 0.389978
RightToes  -23.9245 -0.1044 -0.207603
Spine  -1.87552 0.169278 -0.731747
Spine1  -3.72125 0.430133 -0.649957
HEad  -71.2044 -5.83484 14.7082
LeftShoulder1  -1.94126e-019 -3.10601e-018 -2.51263e-017
LeftArm  14.7053 31.7695 -68.7153
LeftForeArm  127.705 -73.1232 -141.168
LeftHand  0.110465 0.786194 -2.92941
RightShoulder  -4.96962e-017 0 -2.36833e-017
RightArm  20.6931 -22.4251 70.3879
RightForeArm  148.422 79.038 125.044
RightHand  0.176987 3.76359 1.98417
LeftUpLeg  -4.64212 4.05988 -4.99283
LeftLeg  6.12529 21.9749 0.91402
LeftFoot  -1.42143 -0.00658976 -0.409691
LeftToes  -5.55573 1.49739e-006 1.00523e-007
555
root  -37.089 34.7927 6.31544 -173.253 44.7763 179.608
RightUpLeg  -14.217 -12.0418 -0.287365
RightLeg  1.11569 1.00896 -0.0449439
RightFoot  16.5202 0.0121601 0.429568
RightToes  -24.0534 -0.105112 -0.208315
Spine  -1.87362 0.125658 -0.725435
Spine1  -3.71732 0.343402 -0.637775
HEad  -71.1123 -5.31851 14.4532
LeftShoulder1  -1.94126e-019 -3.10601e-018 -2.51263e-017
LeftArm  15.1218 31.5111 -68.681
LeftForeArm  127.99 -73.3103 -140.762
LeftHand  0.10627 0.372324 -2.53189
RightShoulder  -4.96962e-017 0 -2.36833e-017
RightArm  20.6489 -22.5963 70.2678
RightForeArm  148.293 79.0571 124.903
RightHand  0.168901 3.69916 1.89961
LeftUpLeg  -4.68453 4.0299 -5.12592
LeftLeg  6.18071 22.0868 0.939307
LeftFoot  -1.48723 -0.00499737 -0.439513
LeftToes  -5.33898 1.49739e-006 1.00523e-007
556
root  -37.1605 34.7877 6.33781 -173.397 44.9171 179.486
RightUpLeg  -14.3315 -12.0787 -0.393848
RightLeg  1.18363 1.17084 -0.0507915
RightFoot  16.5938 0.00769838 0.476565
RightToes  -24.0047 -0.105811 -0.209063
Spine  -1.87118 0.121335 -0.748378
Spine1  -3.7125 0.335102 -0.686263
HEad  -71.0873 -4.8481 14.2739
LeftShoulder1  -1.94126e-019 -3.10601e-018 -2.51263e-017
LeftArm  15.4835 31.2634 -68.5931
LeftForeArm  128.043 -73.35 -140.672
LeftHand  0.0948289 0.370142 -2.26319
RightShoulder  -4.96962e-017 0 -2.36833e-017
RightArm  20.5495 -22.7056 70.1445
RightForeArm  147.97 79.0854 124.652
RightHand  0.170105 3.62811 1.96229
LeftUpLeg  -4.74228 4.18227 -5.28188
LeftLeg  6.21568 22.0717 0.951855
LeftFoot  -1.49285 -0.00508397 -0.441272
LeftToes  -5.30761 1.49739e-006 1.00523e-007
557
root  -37.2195 34.7822 6.3544 -173.506 45.0771 179.391
RightUpLeg  -14.4078 -12.0358 -0.484628
RightLeg  1.18847 1.28081 -0.0554798
RightFoot  16.6799 0.00289882 0.508999
RightToes  -24.0379 -0.106495 -0.209838
Spine  -1.89905 0.136368 -0.766125
Spine1  -3.76826 0.363691 -0.721099
HEad  -71.2725 -4.29799 14.0844
LeftShoulder1  -1.94126e-019 -3.10601e-018 -2.51263e-017
LeftArm  15.584 31.2784 -68.6393
LeftForeArm  128.061 -73.3519 -140.671
LeftHand  0.0885781 0.452054 -2.16365
RightShoulder  -4.96962e-017 0 -2.36833e-017
RightArm  20.5813 -22.8073 69.9346
RightForeArm  147.769 79.1034 124.493
RightHand  0.173651 3.60015 1.88583
LeftUpLeg  -4.76988 4.17471 -5.40805
LeftLeg  6.19768 22.2039 0.950462
LeftFoot  -1.5274 -0.00399405 -0.459404
LeftToes  -5.18985 1.49739e-006 1.00523e-007
